<svg data-v-423bf9ae="" xmlns="http://www.w3.org/2000/svg" viewBox="0 0 886.4489271628111 60" class="font"><!----><!----><!----><g data-v-423bf9ae="" id="9ac72ae4-281b-42bc-a40a-edcc84ec7654" fill="white" transform="matrix(4.169562096490234,0,0,4.169562096490234,-4.3363445398696285,2.3349547243708955)"><path d="M8.75 3.86C8.75 2.00 7.59 0.71 5.03 0.71L1.04 0.71L1.04 10.50L3.28 10.50L3.28 7.17L5.12 7.17C7.64 7.17 8.75 5.54 8.75 3.86ZM6.48 3.89C6.48 4.80 5.96 5.40 4.84 5.40L3.28 5.40L3.28 2.45L4.79 2.45C5.91 2.45 6.48 2.95 6.48 3.89ZM16.16 8.19C16.16 6.68 15.04 6.19 13.50 5.84C12.03 5.50 11.86 5.26 11.86 4.83C11.86 4.49 12.12 4.21 12.80 4.21C13.43 4.21 13.90 4.52 13.93 5.11L15.96 4.97C15.79 3.75 14.66 2.86 12.87 2.86C10.91 2.86 9.87 3.77 9.87 5.11C9.87 6.34 10.49 7.08 12.38 7.52C13.59 7.80 13.96 7.99 13.96 8.50C13.96 8.96 13.62 9.24 12.88 9.24C12.01 9.24 11.69 8.72 11.63 8.22L9.65 8.44C9.81 9.59 10.65 10.64 12.91 10.64C15.06 10.64 16.16 9.73 16.16 8.19ZM18.10 13.83C19.57 13.83 20.45 13.71 21.10 11.94L24.32 3.00L22.15 3.00L21.11 6.44C20.80 7.46 20.44 8.51 20.44 8.51C20.44 8.51 20.10 7.45 19.78 6.50L18.59 3.00L16.44 3.00L19.36 10.68L19.07 11.51C18.91 11.96 18.65 12.11 18.10 12.11L17.01 12.11L17.01 13.83ZM28.39 10.64C30.59 10.64 31.65 9.35 31.82 7.88L29.68 7.80C29.58 8.75 29.09 9.17 28.43 9.17C27.50 9.17 27.05 8.39 27.05 6.71C27.05 5.12 27.45 4.37 28.39 4.37C29.13 4.37 29.54 4.84 29.62 5.63L31.78 5.53C31.60 4.09 30.51 2.86 28.39 2.86C26.04 2.86 24.77 4.28 24.77 6.78C24.77 9.14 25.96 10.64 28.39 10.64ZM35.39 3.15L35.39-0.48L33.17-0.48L33.17 10.50L35.39 10.50L35.39 6.51C35.39 5.36 35.92 4.54 36.79 4.54C37.65 4.54 37.95 5.22 37.95 6.29L37.95 10.50L40.18 10.50L40.18 5.70C40.18 3.99 39.44 2.86 37.74 2.86C36.72 2.86 35.74 3.35 35.34 4.63C35.36 4.24 35.39 3.68 35.39 3.15ZM46.84 6.75C46.84 8.41 46.34 9.18 45.28 9.18C44.32 9.18 43.75 8.33 43.75 6.75C43.75 5.17 44.25 4.38 45.32 4.38C46.28 4.38 46.84 5.18 46.84 6.75ZM49.07 6.73C49.07 4.45 47.98 2.86 45.30 2.86C42.74 2.86 41.51 4.47 41.51 6.73C41.51 9.09 42.76 10.64 45.26 10.64C47.82 10.64 49.07 9.10 49.07 6.73ZM50.53 10.50L52.71 10.50L52.71-0.48L50.53-0.48ZM59.50 6.75C59.50 8.41 59.00 9.18 57.93 9.18C56.98 9.18 56.41 8.33 56.41 6.75C56.41 5.17 56.91 4.38 57.97 4.38C58.94 4.38 59.50 5.18 59.50 6.75ZM61.73 6.73C61.73 4.45 60.63 2.86 57.96 2.86C55.40 2.86 54.17 4.47 54.17 6.73C54.17 9.09 55.41 10.64 57.92 10.64C60.48 10.64 61.73 9.10 61.73 6.73ZM65.55 10.49C66.82 10.49 67.61 9.97 67.96 9.09C67.94 9.23 67.94 9.41 67.94 9.52L67.94 10.61C67.94 11.98 67.38 12.45 66.49 12.45C65.67 12.45 65.30 12.03 65.18 11.42L63.03 11.63C63.22 12.82 64.12 13.83 66.42 13.83C68.85 13.83 70.14 12.77 70.14 10.56L70.14 4.77C70.14 4.21 70.17 3.23 70.20 3.00L68.11 3.00C68.08 3.23 68.03 3.81 68.00 4.27C67.66 3.35 66.77 2.86 65.69 2.86C63.74 2.86 62.76 4.24 62.76 6.65C62.76 9.03 63.63 10.49 65.55 10.49ZM67.96 6.62C67.96 8.41 67.20 8.92 66.46 8.92C65.49 8.92 65.04 8.16 65.04 6.65C65.04 5.01 65.59 4.40 66.47 4.40C67.23 4.40 67.96 4.93 67.96 6.62ZM72.02 10.50L74.19 10.50L74.19 3.00L72.02 3.00ZM72.02 2.06L74.19 2.06L74.19 0.01L72.02 0.01ZM79.17 10.64C81.37 10.64 82.43 9.35 82.60 7.88L80.46 7.80C80.36 8.75 79.87 9.17 79.21 9.17C78.27 9.17 77.83 8.39 77.83 6.71C77.83 5.12 78.23 4.37 79.17 4.37C79.91 4.37 80.32 4.84 80.40 5.63L82.56 5.53C82.38 4.09 81.28 2.86 79.17 2.86C76.82 2.86 75.54 4.28 75.54 6.78C75.54 9.14 76.73 10.64 79.17 10.64ZM90.90 9.10L90.38 9.10C89.98 9.10 89.85 8.90 89.85 8.55L89.85 5.60C89.85 3.81 88.90 2.86 86.79 2.86C84.70 2.86 83.69 3.79 83.57 5.14L85.58 5.26C85.58 4.56 85.96 4.17 86.66 4.17C87.33 4.17 87.72 4.49 87.72 5.35L87.72 5.98L86.98 5.98C84.52 5.98 83.27 6.65 83.27 8.40C83.27 9.53 84.03 10.64 85.69 10.64C86.72 10.64 87.56 10.21 87.91 9.25C87.92 10.16 88.66 10.64 89.73 10.64C90.20 10.64 90.43 10.63 90.90 10.58ZM86.45 9.24C85.74 9.24 85.40 8.75 85.40 8.20C85.40 7.36 86.06 7.10 86.77 7.10L87.72 7.10L87.72 7.66C87.72 8.68 87.19 9.24 86.45 9.24ZM91.98 10.50L94.16 10.50L94.16-0.48L91.98-0.48ZM101.54 10.50L104.20 10.50L105.42 5.00C105.62 4.07 105.81 3.00 105.83 2.93C105.84 3.07 106.01 4.06 106.22 5.00L107.44 10.50L110.11 10.50L112.53 0.71L110.26 0.71L109.23 5.95L108.77 8.36C108.75 8.30 108.57 7.20 108.25 5.68L107.14 0.71L104.57 0.71L103.49 5.68C103.15 7.22 102.96 8.36 102.96 8.36C102.96 8.36 102.70 7.22 102.45 5.95L101.39 0.71L99.12 0.71ZM116.30 10.64C118.61 10.64 119.34 9.55 119.62 8.33L117.54 8.20C117.42 8.93 117.05 9.24 116.37 9.24C115.32 9.24 114.98 8.30 114.98 7.35L114.98 7.15L119.73 7.15C119.73 7.15 119.76 6.83 119.76 6.50C119.76 4.41 118.90 2.86 116.31 2.86C114.31 2.86 112.66 3.78 112.66 6.71C112.66 9.35 113.96 10.64 116.30 10.64ZM116.27 4.17C117.03 4.17 117.50 4.56 117.50 5.87L117.50 5.89L114.98 5.89C115.02 4.56 115.56 4.17 116.27 4.17ZM121.18 10.50L123.37 10.50L123.37-0.48L121.18-0.48ZM124.52 4.56L125.62 4.56L125.62 10.50L127.83 10.50L127.83 4.56L129.29 4.56L129.29 3.00L127.83 3.00L127.83 1.74C127.83 1.18 128.03 1.05 128.53 1.05L129.30 1.05L129.30-0.52C128.81-0.55 128.48-0.56 127.95-0.56C126.21-0.56 125.62 0.35 125.62 1.69L125.62 3.00L124.52 3.00ZM137.42 9.10L136.91 9.10C136.50 9.10 136.37 8.90 136.37 8.55L136.37 5.60C136.37 3.81 135.42 2.86 133.31 2.86C131.22 2.86 130.21 3.79 130.09 5.14L132.10 5.26C132.10 4.56 132.48 4.17 133.18 4.17C133.85 4.17 134.25 4.49 134.25 5.35L134.25 5.98L133.50 5.98C131.04 5.98 129.79 6.65 129.79 8.40C129.79 9.53 130.55 10.64 132.22 10.64C133.24 10.64 134.08 10.21 134.43 9.25C134.44 10.16 135.18 10.64 136.25 10.64C136.72 10.64 136.95 10.63 137.42 10.58ZM132.97 9.24C132.26 9.24 131.92 8.75 131.92 8.20C131.92 7.36 132.58 7.10 133.29 7.10L134.25 7.10L134.25 7.66C134.25 8.68 133.71 9.24 132.97 9.24ZM143.18 4.75L143.18 2.88C143.01 2.86 142.80 2.86 142.70 2.86C141.58 2.86 140.95 3.50 140.74 4.35C140.73 3.92 140.67 3.33 140.64 3.00L138.49 3.00C138.52 3.16 138.56 4.30 138.56 4.77L138.56 10.50L140.77 10.50L140.77 6.61C140.77 5.49 141.29 4.70 142.44 4.70C142.67 4.70 142.87 4.70 143.18 4.75ZM147.50 10.64C149.81 10.64 150.54 9.55 150.82 8.33L148.75 8.20C148.62 8.93 148.26 9.24 147.57 9.24C146.52 9.24 146.19 8.30 146.19 7.35L146.19 7.15L150.93 7.15C150.93 7.15 150.96 6.83 150.96 6.50C150.96 4.41 150.11 2.86 147.52 2.86C145.52 2.86 143.86 3.78 143.86 6.71C143.86 9.35 145.17 10.64 147.50 10.64ZM147.48 4.17C148.23 4.17 148.71 4.56 148.71 5.87L148.71 5.89L146.19 5.89C146.23 4.56 146.76 4.17 147.48 4.17ZM156.44 10.50L158.42 10.50L158.42 5.01C158.42 4.07 158.28 3.28 158.28 3.28L162.27 10.50L164.91 10.50L164.91 0.71L162.90 0.71L162.90 6.12C162.90 7.35 163.04 8.01 163.04 8.01L158.97 0.71L156.44 0.71ZM170.04 10.64C172.35 10.64 173.08 9.55 173.36 8.33L171.29 8.20C171.16 8.93 170.80 9.24 170.11 9.24C169.06 9.24 168.73 8.30 168.73 7.35L168.73 7.15L173.47 7.15C173.47 7.15 173.50 6.83 173.50 6.50C173.50 4.41 172.65 2.86 170.06 2.86C168.06 2.86 166.40 3.78 166.40 6.71C166.40 9.35 167.71 10.64 170.04 10.64ZM170.02 4.17C170.77 4.17 171.25 4.56 171.25 5.87L171.25 5.89L168.73 5.89C168.77 4.56 169.30 4.17 170.02 4.17ZM174.20 4.58L175.20 4.58L175.20 8.51C175.20 9.90 175.91 10.64 177.18 10.64C177.97 10.64 178.40 10.58 178.85 10.56L178.85 8.81L178.15 8.81C177.58 8.81 177.39 8.64 177.39 8.11L177.39 4.58L178.82 4.58L178.82 3.00L177.39 3.00L177.39 0.70L175.20 0.70L175.20 3.00L174.20 3.00ZM181.34 10.50L183.79 10.50L184.90 6.09C185.07 5.43 185.22 4.59 185.23 4.51C185.25 4.63 185.40 5.45 185.57 6.09L186.70 10.50L189.10 10.50L191.03 3.00L189 3.00L188.06 7.27C187.92 7.91 187.81 8.60 187.81 8.60C187.81 8.60 187.67 7.92 187.50 7.27L186.41 3.00L184.04 3.00L182.95 7.25C182.78 7.92 182.69 8.58 182.69 8.58C182.69 8.58 182.56 7.92 182.42 7.27L181.51 3.00L179.41 3.00ZM196.81 6.75C196.81 8.41 196.31 9.18 195.24 9.18C194.29 9.18 193.72 8.33 193.72 6.75C193.72 5.17 194.22 4.38 195.29 4.38C196.25 4.38 196.81 5.18 196.81 6.75ZM199.04 6.73C199.04 4.45 197.95 2.86 195.27 2.86C192.71 2.86 191.48 4.47 191.48 6.73C191.48 9.09 192.72 10.64 195.23 10.64C197.79 10.64 199.04 9.10 199.04 6.73ZM205.17 4.75L205.17 2.88C205.00 2.86 204.79 2.86 204.69 2.86C203.57 2.86 202.94 3.50 202.73 4.35C202.72 3.92 202.66 3.33 202.64 3.00L200.48 3.00C200.51 3.16 200.55 4.30 200.55 4.77L200.55 10.50L202.76 10.50L202.76 6.61C202.76 5.49 203.28 4.70 204.43 4.70C204.67 4.70 204.86 4.70 205.17 4.75ZM211.27 10.50L213.64 10.50L210.88 5.96L213.42 3.00L211.09 3.00L208.64 5.95L208.64-0.48L206.46-0.48L206.46 10.50L208.64 10.50L208.64 7.87L209.40 7.24Z"></path></g><!----><!----></svg>