<svg data-v-fde0c5aa="" xmlns="http://www.w3.org/2000/svg" viewBox="0 0 300 300" class="iconAboveSlogan"><!----><defs data-v-fde0c5aa=""><linearGradient data-v-fde0c5aa="" gradientTransform="rotate(25)" id="0a0d53c6-c7bf-4f54-a3ef-72e3ae7170e5" x1="0%" y1="0%" x2="100%" y2="0%"><stop data-v-fde0c5aa="" offset="0%" stop-color="#000A68" stop-opacity="1"></stop><stop data-v-fde0c5aa="" offset="100%" stop-color="#00C4EE" stop-opacity="1"></stop></linearGradient></defs><rect data-v-fde0c5aa="" fill="url(#0a0d53c6-c7bf-4f54-a3ef-72e3ae7170e5)" x="0" y="0" width="300px" height="300px" class="logo-background-square"></rect><defs data-v-fde0c5aa=""><!----></defs><g data-v-fde0c5aa="" id="8ee17505-2a27-4a81-8c5e-d40a7ddf1de0" fill="#ffffff" transform="matrix(1.353743638993222,0,0,1.353743638993222,18.416119839095458,149.40139820142147)"><path d="M4.43 3.82L1.17 3.82L1.17 13.15L2.65 13.15L2.65 9.45L4.43 9.44C5.92 9.42 7.44 8.44 7.44 6.64C7.44 4.81 5.92 3.82 4.43 3.82ZM3.88 8.30L2.65 8.27L2.65 4.99L3.88 4.97C5.19 4.96 5.89 5.59 5.89 6.64C5.89 7.70 5.19 8.31 3.88 8.30ZM8.11 12.22C8.59 12.88 9.60 13.34 10.84 13.34C12.47 13.34 13.47 12.54 13.47 11.35C13.47 9.00 9.97 9.79 9.97 8.36C9.97 7.86 10.35 7.53 11.13 7.51C11.61 7.50 12.16 7.73 12.56 8.11L13.33 7.22C12.89 6.75 12.05 6.36 11.07 6.36C9.49 6.36 8.53 7.19 8.53 8.41C8.53 10.82 11.97 10.09 11.97 11.38C11.97 11.87 11.56 12.21 10.75 12.21C10.09 12.21 9.49 11.97 9.01 11.35ZM19.37 6.53L17.41 11.35L15.46 6.53L13.96 6.53L16.71 12.99L15.28 16.22L16.74 16.22L20.88 6.53ZM24.88 13.34C25.80 13.34 26.54 13.07 27.15 12.60L26.34 11.58C25.97 11.93 25.46 12.13 24.91 12.13C23.61 12.13 22.84 11.14 22.84 9.84C22.84 8.55 23.61 7.57 24.91 7.57C25.46 7.57 25.97 7.77 26.34 8.12L27.15 7.10C26.54 6.64 25.80 6.36 24.88 6.36C22.82 6.36 21.39 7.89 21.39 9.84C21.39 11.81 22.82 13.34 24.88 13.34ZM31.73 6.36C30.80 6.36 30.09 6.75 29.68 7.35L29.68 3.24L28.26 3.24L28.26 13.15L29.68 13.15L29.68 9.42C29.68 8.02 30.54 7.57 31.34 7.57C32.36 7.57 32.80 8.30 32.80 9.38L32.80 13.15L34.21 13.15L34.21 9.06C34.21 7 32.89 6.36 31.73 6.36ZM39.08 13.34C41.17 13.34 42.63 11.81 42.63 9.84C42.63 7.89 41.17 6.36 39.08 6.36C36.97 6.36 35.52 7.89 35.52 9.84C35.52 11.81 36.97 13.34 39.08 13.34ZM39.08 12.13C37.86 12.13 37.00 11.14 37.00 9.84C37.00 8.56 37.86 7.57 39.08 7.57C40.29 7.57 41.15 8.56 41.15 9.84C41.15 11.14 40.29 12.13 39.08 12.13ZM44.07 13.15L45.49 13.15L45.49 3.24L44.07 3.24ZM50.49 13.34C52.57 13.34 54.03 11.81 54.03 9.84C54.03 7.89 52.57 6.36 50.49 6.36C48.37 6.36 46.93 7.89 46.93 9.84C46.93 11.81 48.37 13.34 50.49 13.34ZM50.49 12.13C49.26 12.13 48.40 11.14 48.40 9.84C48.40 8.56 49.26 7.57 50.49 7.57C51.70 7.57 52.56 8.56 52.56 9.84C52.56 11.14 51.70 12.13 50.49 12.13ZM60.64 6.53L60.45 7.47C59.94 6.80 59.16 6.36 58.14 6.36C56.42 6.36 55.05 7.67 55.05 9.81C55.05 11.96 56.42 13.27 58.14 13.27C59.11 13.27 59.86 12.89 60.38 12.26L60.38 12.43C60.38 14.13 59.86 15.02 58.46 15.02C58.10 15.02 57.71 14.95 57.36 14.79L57.04 15.98C57.47 16.13 58.01 16.22 58.54 16.22C60.70 16.22 61.79 14.95 61.79 12.54L61.79 6.53ZM58.48 12.07C57.28 12.07 56.50 11.11 56.50 9.81C56.50 8.53 57.28 7.54 58.48 7.54C59.72 7.54 60.52 8.53 60.52 9.81C60.52 11.11 59.72 12.07 58.48 12.07ZM64.39 5.26C64.90 5.26 65.30 4.86 65.30 4.36C65.30 3.86 64.90 3.46 64.39 3.46C63.89 3.46 63.48 3.86 63.48 4.36C63.48 4.86 63.89 5.26 64.39 5.26ZM63.71 13.15L65.10 13.15L65.10 6.53L63.71 6.53ZM70.15 13.34C71.06 13.34 71.81 13.07 72.42 12.60L71.60 11.58C71.24 11.93 70.73 12.13 70.18 12.13C68.88 12.13 68.10 11.14 68.10 9.84C68.10 8.55 68.88 7.57 70.18 7.57C70.73 7.57 71.24 7.77 71.60 8.12L72.42 7.10C71.81 6.64 71.06 6.36 70.15 6.36C68.09 6.36 66.66 7.89 66.66 9.84C66.66 11.81 68.09 13.34 70.15 13.34ZM78.75 6.53L78.56 7.45C78.05 6.78 77.28 6.36 76.26 6.36C74.54 6.36 73.16 7.69 73.16 9.84C73.16 12.00 74.54 13.31 76.26 13.31C77.26 13.31 78.04 12.89 78.55 12.22L78.75 13.15L79.92 13.15L79.92 6.53ZM76.59 12.12C75.40 12.12 74.61 11.14 74.61 9.84C74.61 8.55 75.40 7.55 76.59 7.55C77.83 7.55 78.63 8.55 78.63 9.84C78.63 11.14 77.83 12.12 76.59 12.12ZM81.73 13.15L83.14 13.15L83.14 3.24L81.73 3.24ZM99.09 3.82L96.92 11.07L94.85 3.82L93.61 3.82L91.53 11.07L89.35 3.82L87.78 3.82L90.85 13.15L92.11 13.15L94.22 5.96L96.34 13.15L97.59 13.15L100.65 3.82ZM107.84 9.70C107.84 7.73 106.52 6.36 104.59 6.36C102.61 6.36 101.18 7.89 101.18 9.84C101.18 11.80 102.59 13.31 104.77 13.31C105.90 13.31 106.87 12.92 107.46 12.25L106.49 11.46C106.06 11.94 105.50 12.19 104.75 12.19C103.51 12.19 102.77 11.33 102.67 10.15L107.84 10.15ZM104.59 7.50C105.63 7.50 106.30 8.12 106.44 9.17L102.73 9.17C102.93 8.17 103.61 7.50 104.59 7.50ZM109.30 13.15L110.72 13.15L110.72 3.24L109.30 3.24ZM115.02 4.20C115.21 4.20 115.46 4.27 115.68 4.43L116.29 3.40C115.82 3.12 115.43 2.99 114.87 2.99C113.69 2.99 112.86 3.81 112.86 5.40L112.86 6.53L111.99 6.53L111.99 7.67L112.86 7.67L112.86 13.15L114.26 13.15L114.26 7.67L115.65 7.67L115.65 6.53L114.26 6.53L114.26 5.29C114.26 4.65 114.45 4.20 115.02 4.20ZM121.95 6.53L121.76 7.45C121.25 6.78 120.47 6.36 119.45 6.36C117.73 6.36 116.36 7.69 116.36 9.84C116.36 12.00 117.73 13.31 119.45 13.31C120.46 13.31 121.23 12.89 121.74 12.22L121.95 13.15L123.11 13.15L123.11 6.53ZM119.79 12.12C118.59 12.12 117.80 11.14 117.80 9.84C117.80 8.55 118.59 7.55 119.79 7.55C121.03 7.55 121.83 8.55 121.83 9.84C121.83 11.14 121.03 12.12 119.79 12.12ZM127.95 6.36C127.17 6.36 126.64 6.74 126.26 7.41L126.09 6.53L124.86 6.53L124.86 13.15L126.28 13.15L126.28 9.70C126.28 8.62 126.85 7.66 127.88 7.66C128.11 7.66 128.33 7.70 128.52 7.79L128.95 6.58C128.77 6.47 128.39 6.36 127.95 6.36ZM136.14 9.70C136.14 7.73 134.81 6.36 132.88 6.36C130.90 6.36 129.47 7.89 129.47 9.84C129.47 11.80 130.89 13.31 133.06 13.31C134.20 13.31 135.16 12.92 135.76 12.25L134.78 11.46C134.36 11.94 133.79 12.19 133.04 12.19C131.80 12.19 131.06 11.33 130.96 10.15L136.14 10.15ZM132.88 7.50C133.92 7.50 134.59 8.12 134.74 9.17L131.02 9.17C131.22 8.17 131.91 7.50 132.88 7.50ZM147.90 3.82L147.90 10.78L142.93 3.82L141.53 3.82L141.53 13.15L142.98 13.15L142.98 6.21L147.95 13.15L149.33 13.15L149.33 3.82ZM157.69 9.70C157.69 7.73 156.36 6.36 154.44 6.36C152.45 6.36 151.03 7.89 151.03 9.84C151.03 11.80 152.44 13.31 154.61 13.31C155.75 13.31 156.71 12.92 157.31 12.25L156.33 11.46C155.91 11.94 155.34 12.19 154.60 12.19C153.36 12.19 152.61 11.33 152.51 10.15L157.69 10.15ZM154.44 7.50C155.47 7.50 156.14 8.12 156.29 9.17L152.57 9.17C152.78 8.17 153.46 7.50 154.44 7.50ZM162.24 6.53L160.83 6.53L160.83 4.64L159.43 4.64L159.43 6.53L158.55 6.53L158.55 7.67L159.43 7.67L159.43 13.15L160.84 13.15L160.83 7.67L162.24 7.67ZM171.38 6.53L169.78 11.33L168.31 6.53L167.13 6.53L165.65 11.33L164.03 6.53L162.53 6.53L165.04 13.15L166.22 13.15L167.72 8.17L169.21 13.15L170.39 13.15L172.90 6.53ZM177.07 13.34C179.16 13.34 180.61 11.81 180.61 9.84C180.61 7.89 179.16 6.36 177.07 6.36C174.96 6.36 173.51 7.89 173.51 9.84C173.51 11.81 174.96 13.34 177.07 13.34ZM177.07 12.13C175.85 12.13 174.99 11.14 174.99 9.84C174.99 8.56 175.85 7.57 177.07 7.57C178.28 7.57 179.14 8.56 179.14 9.84C179.14 11.14 178.28 12.13 177.07 12.13ZM185.09 6.36C184.30 6.36 183.78 6.74 183.40 7.41L183.22 6.53L182 6.53L182 13.15L183.41 13.15L183.41 9.70C183.41 8.62 183.98 7.66 185.02 7.66C185.25 7.66 185.47 7.70 185.66 7.79L186.08 6.58C185.91 6.47 185.53 6.36 185.09 6.36ZM193.23 13.15L189.67 9.54L192.82 6.53L190.97 6.53L188.39 9.04L188.39 3.24L186.97 3.24L186.97 13.15L188.39 13.15L188.39 10.06L191.35 13.15Z"></path></g><defs data-v-fde0c5aa=""><!----></defs><g data-v-fde0c5aa="" id="247c89e1-77fc-40a5-bc3f-efb39fd986be" stroke="none" fill="#ffffff" transform="matrix(0.843205509724186,0,0,0.843205509724186,111.92041753628543,77.35728885052112)"><ellipse cx="80.072" cy="65.967" rx="7.366" ry="2.582"></ellipse><ellipse cx="10.249" cy="66.312" rx="7.366" ry="2.582"></ellipse><ellipse cx="63.345" cy="66.14" rx="7.367" ry="2.582"></ellipse><ellipse cx="27.436" cy="66.14" rx="7.366" ry="2.582"></ellipse><ellipse cx="45.238" cy="66.14" rx="7.366" ry="2.582"></ellipse><ellipse cx="77.639" cy="58.824" rx="6.402" ry="2.321"></ellipse><ellipse cx="16.957" cy="59.134" rx="6.402" ry="2.322"></ellipse><ellipse cx="63.102" cy="58.979" rx="6.402" ry="2.322"></ellipse><ellipse cx="31.894" cy="58.979" rx="6.402" ry="2.322"></ellipse><ellipse cx="47.365" cy="58.979" rx="6.402" ry="2.322"></ellipse><ellipse cx="74.622" cy="53.123" rx="5.43" ry="1.529"></ellipse><ellipse cx="23.148" cy="53.326" rx="5.43" ry="1.53"></ellipse><ellipse cx="62.291" cy="53.224" rx="5.431" ry="1.53"></ellipse><ellipse cx="35.819" cy="53.224" rx="5.43" ry="1.53"></ellipse><ellipse cx="48.942" cy="53.224" rx="5.43" ry="1.53"></ellipse><ellipse cx="72.712" cy="49.097" rx="4.731" ry="1.156"></ellipse><ellipse cx="27.87" cy="49.251" rx="4.731" ry="1.156"></ellipse><ellipse cx="61.97" cy="49.174" rx="4.73" ry="1.155"></ellipse><ellipse cx="38.908" cy="49.174" rx="4.731" ry="1.155"></ellipse><ellipse cx="50.34" cy="49.174" rx="4.73" ry="1.155"></ellipse><ellipse cx="70.183" cy="45.567" rx="3.904" ry="1.155"></ellipse><ellipse cx="33.181" cy="45.722" rx="3.904" ry="1.155"></ellipse><ellipse cx="61.319" cy="45.645" rx="3.903" ry="1.155"></ellipse><ellipse cx="42.289" cy="45.645" rx="3.903" ry="1.155"></ellipse><ellipse cx="51.724" cy="45.645" rx="3.903" ry="1.155"></ellipse><ellipse cx="67.674" cy="42.249" rx="3.345" ry=".847"></ellipse><ellipse cx="35.968" cy="42.361" rx="3.345" ry=".848"></ellipse><ellipse cx="60.078" cy="42.305" rx="3.345" ry=".846"></ellipse><ellipse cx="43.773" cy="42.305" rx="3.345" ry=".846"></ellipse><ellipse cx="51.856" cy="42.305" rx="3.345" ry=".846"></ellipse><ellipse cx="64.713" cy="39.569" rx="2.91" ry=".75"></ellipse><ellipse cx="37.13" cy="39.669" rx="2.909" ry=".75"></ellipse><ellipse cx="58.104" cy="39.62" rx="2.909" ry=".749"></ellipse><ellipse cx="43.919" cy="39.62" rx="2.91" ry=".749"></ellipse><ellipse cx="50.952" cy="39.62" rx="2.91" ry=".749"></ellipse><ellipse cx="60.82" cy="37.488" rx="2.505" ry=".56"></ellipse><ellipse cx="37.069" cy="37.563" rx="2.505" ry=".559"></ellipse><ellipse cx="55.13" cy="37.526" rx="2.505" ry=".559"></ellipse><ellipse cx="42.916" cy="37.526" rx="2.506" ry=".559"></ellipse><ellipse cx="48.971" cy="37.526" rx="2.506" ry=".559"></ellipse><ellipse cx="55.342" cy="35.668" rx="2.164" ry=".56"></ellipse><ellipse cx="34.837" cy="35.744" rx="2.163" ry=".56"></ellipse><ellipse cx="50.43" cy="35.706" rx="2.163" ry=".559"></ellipse><ellipse cx="39.884" cy="35.706" rx="2.163" ry=".559"></ellipse><ellipse cx="45.112" cy="35.706" rx="2.163" ry=".559"></ellipse><ellipse cx="51.567" cy="34.081" rx="1.897" ry=".378"></ellipse><ellipse cx="33.578" cy="34.132" rx="1.898" ry=".377"></ellipse><ellipse cx="47.258" cy="34.106" rx="1.897" ry=".377"></ellipse><ellipse cx="38.006" cy="34.106" rx="1.897" ry=".377"></ellipse><ellipse cx="42.592" cy="34.106" rx="1.898" ry=".377"></ellipse><ellipse cx="47.812" cy="32.997" rx="1.664" ry=".253"></ellipse><ellipse cx="32.045" cy="33.031" rx="1.663" ry=".253"></ellipse><ellipse cx="44.036" cy="33.013" rx="1.664" ry=".254"></ellipse><ellipse cx="35.927" cy="33.013" rx="1.664" ry=".254"></ellipse><ellipse cx="39.947" cy="33.013" rx="1.663" ry=".254"></ellipse><ellipse cx="44.17" cy="32.1" rx="1.424" ry=".254"></ellipse><ellipse cx="30.667" cy="32.134" rx="1.424" ry=".253"></ellipse><ellipse cx="40.935" cy="32.117" rx="1.424" ry=".253"></ellipse><ellipse cx="33.99" cy="32.117" rx="1.425" ry=".253"></ellipse><ellipse cx="37.433" cy="32.117" rx="1.424" ry=".253"></ellipse><ellipse cx="40.518" cy="31.239" rx="1.135" ry=".187"></ellipse><ellipse cx="29.759" cy="31.264" rx="1.135" ry=".187"></ellipse><ellipse cx="37.941" cy="31.251" rx="1.135" ry=".188"></ellipse><ellipse cx="32.408" cy="31.251" rx="1.135" ry=".188"></ellipse><ellipse cx="35.151" cy="31.251" rx="1.135" ry=".188"></ellipse><ellipse cx="37.533" cy="30.532" rx=".983" ry=".187"></ellipse><ellipse cx="28.214" cy="30.557" rx=".982" ry=".187"></ellipse><ellipse cx="35.3" cy="30.544" rx=".983" ry=".187"></ellipse><ellipse cx="30.508" cy="30.544" rx=".983" ry=".187"></ellipse><ellipse cx="32.884" cy="30.544" rx=".983" ry=".187"></ellipse><ellipse cx="33.52" cy="29.916" rx=".878" ry=".101"></ellipse><ellipse cx="31.525" cy="29.922" rx=".879" ry=".102"></ellipse><ellipse cx="27.243" cy="29.922" rx=".878" ry=".102"></ellipse><ellipse cx="29.366" cy="29.922" rx=".878" ry=".102"></ellipse><ellipse cx="31.585" cy="29.399" rx=".762" ry=".102"></ellipse><ellipse cx="29.854" cy="29.406" rx=".762" ry=".102"></ellipse><ellipse cx="26.14" cy="29.406" rx=".762" ry=".102"></ellipse><ellipse cx="27.981" cy="29.406" rx=".762" ry=".102"></ellipse><ellipse cx="29.958" cy="28.91" rx=".673" ry=".101"></ellipse><ellipse cx="28.43" cy="28.917" rx=".673" ry=".102"></ellipse><ellipse cx="25.151" cy="28.917" rx=".672" ry=".102"></ellipse><ellipse cx="26.777" cy="28.917" rx=".673" ry=".102"></ellipse><ellipse cx="27.534" cy="28.458" rx=".614" ry=".074"></ellipse><ellipse cx="26.139" cy="28.463" rx=".614" ry=".074"></ellipse><ellipse cx="24.629" cy="28.463" rx=".614" ry=".074"></ellipse></g><defs data-v-fde0c5aa=""><!----></defs><g data-v-fde0c5aa="" id="6c9aac5c-5233-443b-9f5f-ce96ad0d01a4" fill="#ffffff" transform="matrix(1.3428828005979523,0,0,1.3428828005979523,51.13025956900353,176.13530550407535)"><path d="M4.31 13.94C6.23 13.94 7.45 12.84 7.45 11.40C7.45 10.00 6.48 9.45 5.39 8.95L4.03 8.36C3.29 8.02 2.34 7.64 2.34 6.65C2.34 5.70 3.15 5.11 4.37 5.11C5.33 5.11 6.08 5.47 6.66 6.02L7.13 5.47C6.51 4.84 5.53 4.37 4.37 4.37C2.70 4.37 1.48 5.33 1.48 6.71C1.48 8.05 2.60 8.68 3.49 9.04L4.86 9.63C5.82 10.07 6.61 10.37 6.61 11.47C6.61 12.50 5.74 13.20 4.31 13.20C3.22 13.20 2.23 12.71 1.54 11.97L1.02 12.56C1.79 13.38 2.93 13.94 4.31 13.94ZM17.18 16.81C18.63 16.81 19.46 15.68 19.95 14.46L23.02 6.64L22.23 6.64L20.58 10.99C20.34 11.61 20.08 12.35 19.81 13.02L19.75 13.02L18.87 10.99L17.01 6.64L16.18 6.64L19.42 13.87L19.24 14.35C18.79 15.51 18.19 16.11 17.18 16.11C16.95 16.11 16.72 16.07 16.53 16.02L16.34 16.67C16.56 16.76 16.88 16.81 17.18 16.81ZM32.61 13.78L33.61 13.78L34.55 9.63C34.72 8.88 34.85 8.22 34.97 7.57L35.03 7.57C35.20 8.27 35.31 8.95 35.45 9.62L36.41 13.78L37.44 13.78L39.07 6.64L38.28 6.64L37.31 11.13C37.17 11.79 37.04 12.42 36.92 13.05L36.86 13.05C36.71 12.42 36.57 11.79 36.40 11.13L35.42 6.83L34.62 6.83L33.64 11.13C33.47 11.79 33.35 12.42 33.21 13.05L33.15 13.05C33.05 12.42 32.91 11.79 32.77 11.13L31.79 6.64L30.94 6.64ZM50.40 13.94C50.90 13.94 51.35 13.55 51.35 12.94C51.35 12.31 50.90 11.93 50.40 11.93C49.90 11.93 49.45 12.31 49.45 12.94C49.45 13.55 49.90 13.94 50.40 13.94ZM63.04 13.78L68.56 13.78L68.56 13.06L66.22 13.06L66.22 5.24L68.56 5.24L68.56 4.54L63.04 4.54L63.04 5.24L65.38 5.24L65.38 13.06L63.04 13.06ZM78.41 13.78L79.23 13.78L79.23 8.71C80.14 7.67 80.75 7.18 81.65 7.18C82.91 7.18 83.43 7.92 83.43 9.44L83.43 13.78L84.24 13.78L84.24 9.32C84.24 7.42 83.48 6.47 81.84 6.47C80.78 6.47 79.98 7.10 79.23 7.98L79.17 7.98L79.09 6.64L78.41 6.64ZM96.60 13.94C97.10 13.94 97.55 13.55 97.55 12.94C97.55 12.31 97.10 11.93 96.60 11.93C96.10 11.93 95.65 12.31 95.65 12.94C95.65 13.55 96.10 13.94 96.60 13.94ZM109.05 13.78L109.83 13.78L109.83 8.36C109.83 7.46 109.75 6.55 109.73 5.64L109.75 5.64L110.73 7.49L114.10 13.78L114.95 13.78L114.95 4.54L114.17 4.54L114.17 9.90C114.17 10.82 114.25 11.77 114.27 12.66L114.25 12.66L109.90 4.54L109.05 4.54ZM127.82 13.96C128.98 13.96 129.77 13.54 130.40 13.12L130.09 12.53C129.44 12.98 128.77 13.26 127.90 13.26C126.25 13.26 125.10 12.07 125.09 10.36L130.65 10.36C130.68 10.18 130.68 9.98 130.68 9.79C130.68 7.74 129.51 6.47 127.64 6.47C125.90 6.47 124.24 7.91 124.24 10.22C124.24 12.56 125.86 13.96 127.82 13.96ZM125.08 9.73C125.26 8.12 126.41 7.13 127.64 7.13C129.02 7.13 129.91 8.04 129.91 9.73ZM144.13 13.96C144.82 13.96 145.61 13.76 146.23 13.51L146.02 12.91C145.52 13.13 144.97 13.26 144.28 13.26C142.86 13.26 142.46 12.47 142.46 11.12L142.46 7.32L145.96 7.32L145.96 6.64L142.46 6.64L142.46 3.89L141.68 4.54L141.68 6.64L139.68 6.64L139.68 7.32L141.65 7.32L141.65 11.09C141.65 12.80 142.24 13.96 144.13 13.96Z"></path></g></svg>