<svg data-v-423bf9ae="" xmlns="http://www.w3.org/2000/svg" viewBox="0 0 871.0204272288082 60" class="font"><!----><!----><!----><g data-v-423bf9ae="" id="a87846fb-2e85-45bc-abe5-caf1d3fb3fed" fill="black" transform="matrix(4.535147549208299,0,0,4.535147549208299,-5.306126555750723,-13.560090976964773)"><path d="M4.43 3.82L1.17 3.82L1.17 13.15L2.65 13.15L2.65 9.45L4.43 9.44C5.92 9.42 7.44 8.44 7.44 6.64C7.44 4.81 5.92 3.82 4.43 3.82ZM3.88 8.30L2.65 8.27L2.65 4.99L3.88 4.97C5.19 4.96 5.89 5.59 5.89 6.64C5.89 7.70 5.19 8.31 3.88 8.30ZM8.11 12.22C8.59 12.88 9.60 13.34 10.84 13.34C12.47 13.34 13.47 12.54 13.47 11.35C13.47 9.00 9.97 9.79 9.97 8.36C9.97 7.86 10.35 7.53 11.13 7.51C11.61 7.50 12.16 7.73 12.56 8.11L13.33 7.22C12.89 6.75 12.05 6.36 11.07 6.36C9.49 6.36 8.53 7.19 8.53 8.41C8.53 10.82 11.97 10.09 11.97 11.38C11.97 11.87 11.56 12.21 10.75 12.21C10.09 12.21 9.49 11.97 9.01 11.35ZM19.37 6.53L17.41 11.35L15.46 6.53L13.96 6.53L16.71 12.99L15.28 16.22L16.74 16.22L20.88 6.53ZM24.88 13.34C25.80 13.34 26.54 13.07 27.15 12.60L26.34 11.58C25.97 11.93 25.46 12.13 24.91 12.13C23.61 12.13 22.84 11.14 22.84 9.84C22.84 8.55 23.61 7.57 24.91 7.57C25.46 7.57 25.97 7.77 26.34 8.12L27.15 7.10C26.54 6.64 25.80 6.36 24.88 6.36C22.82 6.36 21.39 7.89 21.39 9.84C21.39 11.81 22.82 13.34 24.88 13.34ZM31.73 6.36C30.80 6.36 30.09 6.75 29.68 7.35L29.68 3.24L28.26 3.24L28.26 13.15L29.68 13.15L29.68 9.42C29.68 8.02 30.54 7.57 31.34 7.57C32.36 7.57 32.80 8.30 32.80 9.38L32.80 13.15L34.21 13.15L34.21 9.06C34.21 7 32.89 6.36 31.73 6.36ZM39.08 13.34C41.17 13.34 42.63 11.81 42.63 9.84C42.63 7.89 41.17 6.36 39.08 6.36C36.97 6.36 35.52 7.89 35.52 9.84C35.52 11.81 36.97 13.34 39.08 13.34ZM39.08 12.13C37.86 12.13 37.00 11.14 37.00 9.84C37.00 8.56 37.86 7.57 39.08 7.57C40.29 7.57 41.15 8.56 41.15 9.84C41.15 11.14 40.29 12.13 39.08 12.13ZM44.07 13.15L45.49 13.15L45.49 3.24L44.07 3.24ZM50.49 13.34C52.57 13.34 54.03 11.81 54.03 9.84C54.03 7.89 52.57 6.36 50.49 6.36C48.37 6.36 46.93 7.89 46.93 9.84C46.93 11.81 48.37 13.34 50.49 13.34ZM50.49 12.13C49.26 12.13 48.40 11.14 48.40 9.84C48.40 8.56 49.26 7.57 50.49 7.57C51.70 7.57 52.56 8.56 52.56 9.84C52.56 11.14 51.70 12.13 50.49 12.13ZM60.64 6.53L60.45 7.47C59.94 6.80 59.16 6.36 58.14 6.36C56.42 6.36 55.05 7.67 55.05 9.81C55.05 11.96 56.42 13.27 58.14 13.27C59.11 13.27 59.86 12.89 60.38 12.26L60.38 12.43C60.38 14.13 59.86 15.02 58.46 15.02C58.10 15.02 57.71 14.95 57.36 14.79L57.04 15.98C57.47 16.13 58.01 16.22 58.54 16.22C60.70 16.22 61.79 14.95 61.79 12.54L61.79 6.53ZM58.48 12.07C57.28 12.07 56.50 11.11 56.50 9.81C56.50 8.53 57.28 7.54 58.48 7.54C59.72 7.54 60.52 8.53 60.52 9.81C60.52 11.11 59.72 12.07 58.48 12.07ZM64.39 5.26C64.90 5.26 65.30 4.86 65.30 4.36C65.30 3.86 64.90 3.46 64.39 3.46C63.89 3.46 63.48 3.86 63.48 4.36C63.48 4.86 63.89 5.26 64.39 5.26ZM63.71 13.15L65.10 13.15L65.10 6.53L63.71 6.53ZM70.15 13.34C71.06 13.34 71.81 13.07 72.42 12.60L71.60 11.58C71.24 11.93 70.73 12.13 70.18 12.13C68.88 12.13 68.10 11.14 68.10 9.84C68.10 8.55 68.88 7.57 70.18 7.57C70.73 7.57 71.24 7.77 71.60 8.12L72.42 7.10C71.81 6.64 71.06 6.36 70.15 6.36C68.09 6.36 66.66 7.89 66.66 9.84C66.66 11.81 68.09 13.34 70.15 13.34ZM78.75 6.53L78.56 7.45C78.05 6.78 77.28 6.36 76.26 6.36C74.54 6.36 73.16 7.69 73.16 9.84C73.16 12.00 74.54 13.31 76.26 13.31C77.26 13.31 78.04 12.89 78.55 12.22L78.75 13.15L79.92 13.15L79.92 6.53ZM76.59 12.12C75.40 12.12 74.61 11.14 74.61 9.84C74.61 8.55 75.40 7.55 76.59 7.55C77.83 7.55 78.63 8.55 78.63 9.84C78.63 11.14 77.83 12.12 76.59 12.12ZM81.73 13.15L83.14 13.15L83.14 3.24L81.73 3.24ZM99.09 3.82L96.92 11.07L94.85 3.82L93.61 3.82L91.53 11.07L89.35 3.82L87.78 3.82L90.85 13.15L92.11 13.15L94.22 5.96L96.34 13.15L97.59 13.15L100.65 3.82ZM107.84 9.70C107.84 7.73 106.52 6.36 104.59 6.36C102.61 6.36 101.18 7.89 101.18 9.84C101.18 11.80 102.59 13.31 104.77 13.31C105.90 13.31 106.87 12.92 107.46 12.25L106.49 11.46C106.06 11.94 105.50 12.19 104.75 12.19C103.51 12.19 102.77 11.33 102.67 10.15L107.84 10.15ZM104.59 7.50C105.63 7.50 106.30 8.12 106.44 9.17L102.73 9.17C102.93 8.17 103.61 7.50 104.59 7.50ZM109.30 13.15L110.72 13.15L110.72 3.24L109.30 3.24ZM115.02 4.20C115.21 4.20 115.46 4.27 115.68 4.43L116.29 3.40C115.82 3.12 115.43 2.99 114.87 2.99C113.69 2.99 112.86 3.81 112.86 5.40L112.86 6.53L111.99 6.53L111.99 7.67L112.86 7.67L112.86 13.15L114.26 13.15L114.26 7.67L115.65 7.67L115.65 6.53L114.26 6.53L114.26 5.29C114.26 4.65 114.45 4.20 115.02 4.20ZM121.95 6.53L121.76 7.45C121.25 6.78 120.47 6.36 119.45 6.36C117.73 6.36 116.36 7.69 116.36 9.84C116.36 12.00 117.73 13.31 119.45 13.31C120.46 13.31 121.23 12.89 121.74 12.22L121.95 13.15L123.11 13.15L123.11 6.53ZM119.79 12.12C118.59 12.12 117.80 11.14 117.80 9.84C117.80 8.55 118.59 7.55 119.79 7.55C121.03 7.55 121.83 8.55 121.83 9.84C121.83 11.14 121.03 12.12 119.79 12.12ZM127.95 6.36C127.17 6.36 126.64 6.74 126.26 7.41L126.09 6.53L124.86 6.53L124.86 13.15L126.28 13.15L126.28 9.70C126.28 8.62 126.85 7.66 127.88 7.66C128.11 7.66 128.33 7.70 128.52 7.79L128.95 6.58C128.77 6.47 128.39 6.36 127.95 6.36ZM136.14 9.70C136.14 7.73 134.81 6.36 132.88 6.36C130.90 6.36 129.47 7.89 129.47 9.84C129.47 11.80 130.89 13.31 133.06 13.31C134.20 13.31 135.16 12.92 135.76 12.25L134.78 11.46C134.36 11.94 133.79 12.19 133.04 12.19C131.80 12.19 131.06 11.33 130.96 10.15L136.14 10.15ZM132.88 7.50C133.92 7.50 134.59 8.12 134.74 9.17L131.02 9.17C131.22 8.17 131.91 7.50 132.88 7.50ZM147.90 3.82L147.90 10.78L142.93 3.82L141.53 3.82L141.53 13.15L142.98 13.15L142.98 6.21L147.95 13.15L149.33 13.15L149.33 3.82ZM157.69 9.70C157.69 7.73 156.36 6.36 154.44 6.36C152.45 6.36 151.03 7.89 151.03 9.84C151.03 11.80 152.44 13.31 154.61 13.31C155.75 13.31 156.71 12.92 157.31 12.25L156.33 11.46C155.91 11.94 155.34 12.19 154.60 12.19C153.36 12.19 152.61 11.33 152.51 10.15L157.69 10.15ZM154.44 7.50C155.47 7.50 156.14 8.12 156.29 9.17L152.57 9.17C152.78 8.17 153.46 7.50 154.44 7.50ZM162.24 6.53L160.83 6.53L160.83 4.64L159.43 4.64L159.43 6.53L158.55 6.53L158.55 7.67L159.43 7.67L159.43 13.15L160.84 13.15L160.83 7.67L162.24 7.67ZM171.38 6.53L169.78 11.33L168.31 6.53L167.13 6.53L165.65 11.33L164.03 6.53L162.53 6.53L165.04 13.15L166.22 13.15L167.72 8.17L169.21 13.15L170.39 13.15L172.90 6.53ZM177.07 13.34C179.16 13.34 180.61 11.81 180.61 9.84C180.61 7.89 179.16 6.36 177.07 6.36C174.96 6.36 173.51 7.89 173.51 9.84C173.51 11.81 174.96 13.34 177.07 13.34ZM177.07 12.13C175.85 12.13 174.99 11.14 174.99 9.84C174.99 8.56 175.85 7.57 177.07 7.57C178.28 7.57 179.14 8.56 179.14 9.84C179.14 11.14 178.28 12.13 177.07 12.13ZM185.09 6.36C184.30 6.36 183.78 6.74 183.40 7.41L183.22 6.53L182 6.53L182 13.15L183.41 13.15L183.41 9.70C183.41 8.62 183.98 7.66 185.02 7.66C185.25 7.66 185.47 7.70 185.66 7.79L186.08 6.58C185.91 6.47 185.53 6.36 185.09 6.36ZM193.23 13.15L189.67 9.54L192.82 6.53L190.97 6.53L188.39 9.04L188.39 3.24L186.97 3.24L186.97 13.15L188.39 13.15L188.39 10.06L191.35 13.15Z"></path></g><!----><!----></svg>