<svg data-v-423bf9ae="" xmlns="http://www.w3.org/2000/svg" viewBox="0 0 897.3277886163937 60" class="font"><!----><!----><!----><g data-v-423bf9ae="" id="4e1bf366-ee9b-4a73-bb59-d8d532a7ee3d" fill="black" transform="matrix(4.175365377719738,0,0,4.175365377719738,-4.551144360470914,-11.022965750449103)"><path d="M1.09 4.36L1.09 13.52L3.65 13.52L3.65 10.81C4.05 11.02 4.59 11.18 5.29 11.18C7.07 11.18 8.75 9.94 8.75 7.82C8.75 5.66 6.86 4.36 5.02 4.36ZM4.72 9.06C4.32 9.06 3.95 8.98 3.65 8.87L3.65 6.75L4.72 6.75C5.52 6.75 6.13 7.07 6.13 7.82C6.13 8.48 5.52 9.06 4.72 9.06ZM12.55 6.34C10.90 6.34 9.64 7.25 9.64 8.68C9.64 9.65 10.09 10.32 11.12 10.64L11.81 10.86C12.36 11.03 12.66 11.13 12.66 11.39C12.66 11.72 12.41 11.83 11.89 11.83C11.24 11.83 10.32 11.53 9.67 11.12L9.67 12.95C10.29 13.38 11.22 13.73 12.26 13.73C13.75 13.73 15.12 12.77 15.12 11.40C15.12 10.40 14.53 9.76 13.30 9.45L12.88 9.34C12.29 9.19 12.14 9.11 12.14 8.85C12.14 8.48 12.54 8.31 12.97 8.31C13.66 8.31 14.27 8.64 14.75 8.93L14.75 7.08C14.27 6.63 13.45 6.34 12.55 6.34ZM23.83 6.55L21.21 6.55L19.71 10.25L18.17 6.55L15.46 6.55L18.40 12.92L16.20 16.80L18.83 16.80ZM28.05 6.34C25.98 6.34 24.38 8.13 24.38 10.08C24.38 12.02 25.98 13.73 28.05 13.73C29.12 13.73 29.60 13.38 30.08 13.02L30.08 10.96C29.65 11.27 29.15 11.47 28.37 11.47C27.59 11.47 26.91 10.99 26.91 10.08C26.91 9.16 27.73 8.67 28.37 8.67C29.15 8.67 29.65 8.87 30.08 9.17L30.08 7.12C29.60 6.75 29.12 6.34 28.05 6.34ZM35.63 6.34C34.70 6.34 34.10 6.85 33.66 7.45L33.66 3.68L31.31 3.68L31.31 13.52L33.66 13.52L33.66 9.31C33.91 8.94 34.25 8.64 34.75 8.64C35.23 8.64 35.68 8.89 35.68 9.58L35.70 13.52L38.05 13.52L38.05 9.21C38.05 7.33 37.05 6.34 35.63 6.34ZM43.24 6.34C41.30 6.34 39.42 7.89 39.42 10.04C39.42 12.18 41.30 13.73 43.24 13.73C45.19 13.73 47.07 12.18 47.07 10.04C47.07 7.89 45.19 6.34 43.24 6.34ZM43.24 8.60C43.75 8.60 44.54 8.85 44.54 10.04C44.54 11.22 43.75 11.47 43.24 11.47C42.74 11.47 41.95 11.22 41.95 10.04C41.95 8.85 42.74 8.60 43.24 8.60ZM50.86 13.52L50.86 3.68L48.51 3.68L48.51 13.52ZM56.12 6.34C54.18 6.34 52.29 7.89 52.29 10.04C52.29 12.18 54.18 13.73 56.12 13.73C58.06 13.73 59.95 12.18 59.95 10.04C59.95 7.89 58.06 6.34 56.12 6.34ZM56.12 8.60C56.63 8.60 57.42 8.85 57.42 10.04C57.42 11.22 56.63 11.47 56.12 11.47C55.62 11.47 54.82 11.22 54.82 10.04C54.82 8.85 55.62 8.60 56.12 8.60ZM64.05 6.34C62.36 6.34 60.91 7.67 60.91 10.02C60.91 12.55 62.36 13.73 63.92 13.73C64.91 13.73 65.65 13.13 65.99 12.36L65.99 13.33C65.99 14.14 65.16 14.89 64.03 14.89C62.89 14.89 62.17 14.56 61.30 14.19L61.30 16.27C62.23 16.78 63.08 17.01 64.24 17.01C66.39 17.01 68.35 15.53 68.35 13.32L68.35 6.55L65.99 6.55L65.99 7.19C65.54 6.70 64.78 6.34 64.05 6.34ZM64.54 8.64C65.06 8.64 65.58 8.89 65.99 9.21L65.99 9.88C65.99 10.90 65.20 11.35 64.61 11.35C63.86 11.35 63.37 10.77 63.37 10.02C63.37 9.28 63.86 8.64 64.54 8.64ZM72.08 5.48C72.86 5.48 73.55 4.84 73.55 4.06C73.55 3.27 72.86 2.64 72.08 2.64C71.29 2.64 70.62 3.27 70.62 4.06C70.62 4.84 71.29 5.48 72.08 5.48ZM73.32 6.55L69.84 6.55L69.84 8.46L70.97 8.46L70.97 13.52L73.32 13.52ZM78.30 6.34C76.22 6.34 74.62 8.13 74.62 10.08C74.62 12.02 76.22 13.73 78.30 13.73C79.37 13.73 79.84 13.38 80.32 13.02L80.32 10.96C79.90 11.27 79.39 11.47 78.61 11.47C77.83 11.47 77.15 10.99 77.15 10.08C77.15 9.16 77.97 8.67 78.61 8.67C79.39 8.67 79.90 8.87 80.32 9.17L80.32 7.12C79.84 6.75 79.37 6.34 78.30 6.34ZM84.22 6.34C82.52 6.34 81.07 7.67 81.07 10.02C81.07 12.55 82.52 13.73 84.08 13.73C85.08 13.73 85.82 13.13 86.16 12.36L86.16 13.52L88.51 13.52L88.51 6.55L86.16 6.55L86.16 7.19C85.71 6.70 84.94 6.34 84.22 6.34ZM84.71 8.64C85.23 8.64 85.75 8.89 86.16 9.21L86.16 9.88C86.16 10.90 85.37 11.35 84.78 11.35C84.03 11.35 83.54 10.77 83.54 10.02C83.54 9.28 84.03 8.64 84.71 8.64ZM92.78 13.52L92.78 3.68L90.43 3.68L90.43 13.52ZM108.04 13.52L111.02 4.36L108.04 4.36L106.82 9.12L105.37 4.36L103.62 4.36L102.20 9.12L100.95 4.36L97.97 4.36L100.98 13.52L102.91 13.52L104.51 8.67L106.11 13.52ZM118.71 9.87C118.71 7.72 117.30 6.34 115.34 6.34C113.23 6.34 111.63 8.07 111.63 10.14C111.63 12.36 113.49 13.73 115.47 13.73C116.51 13.73 117.29 13.52 117.77 13.22L117.77 11.21C117.39 11.43 116.66 11.68 115.61 11.68C114.82 11.68 114.16 11.35 113.96 10.65L118.71 10.65ZM113.98 9.34C114.17 8.63 114.65 8.29 115.27 8.29C115.88 8.29 116.48 8.68 116.48 9.34ZM122.36 13.52L122.36 3.68L120.01 3.68L120.01 13.52ZM128.15 5.50C128.56 5.50 128.90 5.58 129.17 5.73L129.17 3.81C128.80 3.61 128.32 3.47 127.63 3.47C126.05 3.47 124.91 4.62 124.91 6.19L124.91 6.55L123.87 6.55L123.87 8.39L124.91 8.39L124.91 13.52L127.26 13.52L127.26 8.39L128.84 8.39L128.84 6.55L127.26 6.55L127.26 6.29C127.26 5.77 127.72 5.50 128.15 5.50ZM132.86 6.34C131.17 6.34 129.72 7.67 129.72 10.02C129.72 12.55 131.17 13.73 132.73 13.73C133.72 13.73 134.46 13.13 134.80 12.36L134.80 13.52L137.16 13.52L137.16 6.55L134.80 6.55L134.80 7.19C134.35 6.70 133.59 6.34 132.86 6.34ZM133.36 8.64C133.88 8.64 134.39 8.89 134.80 9.21L134.80 9.88C134.80 10.90 134.01 11.35 133.42 11.35C132.67 11.35 132.18 10.77 132.18 10.02C132.18 9.28 132.67 8.64 133.36 8.64ZM143.21 6.41C142.34 6.41 141.86 7.05 141.42 7.79L141.42 6.55L139.07 6.55L139.07 13.52L141.42 13.52L141.42 9.94C141.74 9.32 142.23 8.90 142.87 8.90C143.35 8.90 143.66 9.02 144.01 9.23L144.01 6.62C143.77 6.49 143.51 6.41 143.21 6.41ZM151.84 9.87C151.84 7.72 150.43 6.34 148.46 6.34C146.36 6.34 144.76 8.07 144.76 10.14C144.76 12.36 146.62 13.73 148.60 13.73C149.64 13.73 150.42 13.52 150.90 13.22L150.90 11.21C150.51 11.43 149.79 11.68 148.74 11.68C147.94 11.68 147.29 11.35 147.08 10.65L151.84 10.65ZM147.11 9.34C147.30 8.63 147.78 8.29 148.39 8.29C149.01 8.29 149.61 8.68 149.61 9.34ZM165.88 13.66L165.88 4.36L163.32 4.36L163.32 8.94L158.42 4.22L157.51 4.22L157.51 13.52L160.07 13.52L160.07 9.02L164.98 13.66ZM174.67 9.87C174.67 7.72 173.26 6.34 171.29 6.34C169.19 6.34 167.59 8.07 167.59 10.14C167.59 12.36 169.45 13.73 171.43 13.73C172.47 13.73 173.25 13.52 173.73 13.22L173.73 11.21C173.35 11.43 172.62 11.68 171.57 11.68C170.78 11.68 170.12 11.35 169.91 10.65L174.67 10.65ZM169.94 9.34C170.13 8.63 170.61 8.29 171.23 8.29C171.84 8.29 172.44 8.68 172.44 9.34ZM179.09 6.55L179.09 4.50L177.83 4.50C177.42 5.96 176.45 6.73 175.56 6.96L175.56 8.39L176.74 8.39L176.74 11.21C176.74 12.80 177.86 13.73 179.16 13.73C180.06 13.73 180.70 13.37 181.00 12.97L181.00 11.14C180.66 11.35 180.33 11.44 179.89 11.44C179.39 11.44 179.09 11.02 179.09 10.35L179.09 8.39L180.92 8.39L180.92 6.55ZM190.42 13.52L192.81 6.55L190.38 6.55L189.36 9.94L188.18 6.55L186.32 6.55L185.14 9.94L184.12 6.55L181.69 6.55L184.05 13.52L185.90 13.52L187.25 9.41L188.60 13.52ZM196.92 6.34C194.97 6.34 193.09 7.89 193.09 10.04C193.09 12.18 194.97 13.73 196.92 13.73C198.86 13.73 200.74 12.18 200.74 10.04C200.74 7.89 198.86 6.34 196.92 6.34ZM196.92 8.60C197.42 8.60 198.21 8.85 198.21 10.04C198.21 11.22 197.42 11.47 196.92 11.47C196.41 11.47 195.62 11.22 195.62 10.04C195.62 8.85 196.41 8.60 196.92 8.60ZM206.32 6.41C205.45 6.41 204.97 7.05 204.53 7.79L204.53 6.55L202.18 6.55L202.18 13.52L204.53 13.52L204.53 9.94C204.85 9.32 205.34 8.90 205.98 8.90C206.46 8.90 206.77 9.02 207.12 9.23L207.12 6.62C206.88 6.49 206.62 6.41 206.32 6.41ZM211.52 11.09L212.90 13.52L216.00 13.52L212.97 9.54L215.77 6.55L212.93 6.55L210.70 9.35L210.70 3.68L208.35 3.68L208.35 13.52L210.70 13.52L210.70 11.96Z"></path></g><!----><!----></svg>