<svg data-v-423bf9ae="" xmlns="http://www.w3.org/2000/svg" viewBox="0 0 1141 90" class="iconLeft"><!----><!----><!----><g data-v-423bf9ae="" id="efd59e92-5400-431c-a7fd-923457c14b68" fill="#ffffff" transform="matrix(4.5558086296446,0,0,4.5558086296446,204.02672949982014,3.9749418150051383)"><path d="M2.89 12.67L0.84 12.67L0.84 2.42L5.31 2.42L5.31 2.42Q8.90 2.42 8.90 5.37L8.90 5.37L8.90 5.37Q8.90 8.44 5.32 8.44L5.32 8.44L2.89 8.44L2.89 12.67ZM2.89 4.34L2.89 6.52L5.76 6.52L5.76 6.52Q7 6.50 7.03 5.39L7.03 5.39L7.03 5.39Q7 4.38 5.78 4.34L5.78 4.34L2.89 4.34ZM12.62 5.80L12.62 5.80Q13.58 5.80 14.12 6.03L14.12 6.03L14.12 6.03Q14.65 6.26 15.11 6.72L15.11 6.72L14.05 7.92L14.05 7.92Q13.58 7.37 12.89 7.37L12.89 7.37L12.89 7.37Q12.20 7.37 11.96 7.63L11.96 7.63L11.96 7.63Q11.73 7.88 11.96 8.09L11.96 8.09L11.96 8.09Q12.20 8.30 12.89 8.44L12.89 8.44L12.89 8.44Q13.90 8.53 14.55 9.02L14.55 9.02L14.55 9.02Q15.20 9.50 15.20 10.71L15.20 10.71L15.20 10.71Q15.20 11.68 14.44 12.21L14.44 12.21L14.44 12.21Q13.67 12.74 12.65 12.74L12.65 12.74L12.65 12.74Q11.68 12.74 11.04 12.47L11.04 12.47L11.04 12.47Q10.39 12.19 9.93 11.72L9.93 11.72L10.99 10.53L10.99 10.53Q11.45 11.08 12.43 11.17L12.43 11.17L12.43 11.17Q13.21 11.17 13.44 10.91L13.44 10.91L13.44 10.91Q13.67 10.66 13.51 10.40L13.51 10.40L13.51 10.40Q13.35 10.14 12.43 10.06L12.43 10.06L12.43 10.06Q11.59 9.96 10.90 9.54L10.90 9.54L10.90 9.54Q10.21 9.13 10.21 7.97L10.21 7.97L10.21 7.97Q10.21 6.91 11.00 6.35L11.00 6.35L11.00 6.35Q11.79 5.80 12.62 5.80L12.62 5.80ZM20.84 10.31L20.84 10.31L20.84 5.84L22.75 5.84L22.75 12.13L22.75 12.13Q22.75 13.56 21.86 14.53L21.86 14.53L21.86 14.53Q20.97 15.49 19.74 15.54L19.74 15.54L19.33 15.59L19.33 15.59Q17.90 15.54 16.73 14.45L16.73 14.45L17.62 13.43L17.62 13.43Q18.44 14.04 19.17 14.11L19.17 14.11L19.17 14.11Q20.06 14.11 20.45 13.67L20.45 13.67L20.45 13.67Q20.84 13.22 20.84 12.40L20.84 12.40L20.84 12.05L20.84 12.05Q20.11 12.67 19.16 12.67L19.16 12.67L19.16 12.67Q17.86 12.67 17.18 11.89L17.18 11.89L17.18 11.89Q16.50 11.10 16.50 10.08L16.50 10.08L16.50 5.84L18.41 5.84L18.41 9.60L18.41 9.60Q18.41 10.28 18.75 10.66L18.75 10.66L18.75 10.66Q19.09 11.03 19.78 11.05L19.78 11.05L19.78 11.05Q20.38 11.01 20.84 10.31ZM27.38 12.67L27.38 12.67Q26.01 12.67 24.99 11.82L24.99 11.82L24.99 11.82Q23.96 10.96 23.96 9.60L23.96 9.60L23.96 8.91L23.96 8.91Q23.96 7.55 24.99 6.69L24.99 6.69L24.99 6.69Q26.01 5.84 27.38 5.84L27.38 5.84L27.38 5.84Q29.03 5.84 30.11 7L30.11 7L28.75 8.03L28.75 8.03Q28.13 7.41 27.38 7.41L27.38 7.41L27.38 7.41Q26.69 7.41 26.18 7.96L26.18 7.96L26.18 7.96Q25.67 8.50 25.67 9.26L25.67 9.26L25.67 9.26Q25.67 10.01 26.15 10.55L26.15 10.55L26.15 10.55Q26.63 11.10 27.38 11.10L27.38 11.10L27.38 11.10Q28.13 11.10 28.75 10.49L28.75 10.49L30.11 11.51L30.11 11.51Q29.02 12.67 27.38 12.67L27.38 12.67ZM33.39 8.05L33.39 8.05L33.39 12.67L31.48 12.67L31.48 2.42L33.39 2.42L33.39 6.45L33.39 6.45Q34.08 5.84 35.03 5.84L35.03 5.84L35.03 5.84Q36.33 5.84 37.02 6.62L37.02 6.62L37.02 6.62Q37.70 7.41 37.70 8.44L37.70 8.44L37.70 12.67L35.79 12.67L35.79 8.91L35.79 8.91Q35.79 8.23 35.44 7.85L35.44 7.85L35.44 7.85Q35.10 7.48 34.41 7.46L34.41 7.46L34.41 7.46Q33.82 7.50 33.39 8.05ZM42.09 12.74L42.09 12.74Q40.60 12.74 39.60 11.74L39.60 11.74L39.60 11.74Q38.60 10.74 38.60 9.26L38.60 9.26L38.60 9.26Q38.60 7.77 39.60 6.77L39.60 6.77L39.60 6.77Q40.60 5.77 42.09 5.77L42.09 5.77L42.09 5.77Q43.58 5.77 44.58 6.77L44.58 6.77L44.58 6.77Q45.58 7.77 45.58 9.26L45.58 9.26L45.58 9.26Q45.58 10.75 44.58 11.74L44.58 11.74L44.58 11.74Q43.58 12.74 42.09 12.74L42.09 12.74ZM42.08 11.09L42.08 11.09L42.08 11.09Q42.86 11.09 43.35 10.56L43.35 10.56L43.35 10.56Q43.83 10.04 43.83 9.26L43.83 9.26L43.83 9.26Q43.83 8.48 43.35 7.96L43.35 7.96L43.35 7.96Q42.86 7.43 42.08 7.43L42.08 7.43L42.08 7.43Q41.30 7.43 40.82 7.96L40.82 7.96L40.82 7.96Q40.33 8.48 40.33 9.26L40.33 9.26L40.33 9.26Q40.33 10.04 40.82 10.56L40.82 10.56L40.82 10.56Q41.30 11.09 42.08 11.09ZM48.79 12.67L46.87 12.67L46.87 2.42L48.79 2.42L48.79 12.67ZM53.88 12.74L53.88 12.74Q52.39 12.74 51.39 11.74L51.39 11.74L51.39 11.74Q50.39 10.74 50.39 9.26L50.39 9.26L50.39 9.26Q50.39 7.77 51.39 6.77L51.39 6.77L51.39 6.77Q52.39 5.77 53.88 5.77L53.88 5.77L53.88 5.77Q55.37 5.77 56.37 6.77L56.37 6.77L56.37 6.77Q57.37 7.77 57.37 9.26L57.37 9.26L57.37 9.26Q57.37 10.75 56.37 11.74L56.37 11.74L56.37 11.74Q55.37 12.74 53.88 12.74L53.88 12.74ZM53.87 11.09L53.87 11.09L53.87 11.09Q54.65 11.09 55.14 10.56L55.14 10.56L55.14 10.56Q55.62 10.04 55.62 9.26L55.62 9.26L55.62 9.26Q55.62 8.48 55.14 7.96L55.14 7.96L55.14 7.96Q54.65 7.43 53.87 7.43L53.87 7.43L53.87 7.43Q53.09 7.43 52.61 7.96L52.61 7.96L52.61 7.96Q52.12 8.48 52.12 9.26L52.12 9.26L52.12 9.26Q52.12 10.04 52.61 10.56L52.61 10.56L52.61 10.56Q53.09 11.09 53.87 11.09ZM63.21 5.84L65.12 6.04L65.12 12.13L65.12 12.13Q65.12 13.56 64.26 14.53L64.26 14.53L64.26 14.53Q63.41 15.49 62.11 15.54L62.11 15.54L61.70 15.59L61.70 15.59Q59.72 15.54 58.63 14.45L58.63 14.45L59.51 13.43L59.51 13.43Q60.27 13.97 61.34 14.04L61.34 14.04L61.34 14.04Q62.43 14.04 62.82 13.53L62.82 13.53L62.82 13.53Q63.21 13.02 63.21 12.40L63.21 12.40L63.21 12.06L63.21 12.06Q62.44 12.67 61.43 12.67L61.43 12.67L61.43 12.67Q59.86 12.67 59.07 11.75L59.07 11.75L59.07 11.75Q58.28 10.83 58.28 9.26L58.28 9.26L58.28 9.26Q58.28 7.75 59.14 6.79L59.14 6.79L59.14 6.79Q59.99 5.84 61.56 5.84L61.56 5.84L61.56 5.84Q62.73 5.91 63.21 6.46L63.21 6.46L63.21 5.84ZM63.21 9.87L63.21 9.87L63.21 8.76L63.21 8.76Q63.07 7.62 61.77 7.42L61.77 7.42L61.77 7.42Q60.06 7.48 59.92 9.12L59.92 9.12L59.92 9.12Q59.99 11.03 61.77 11.10L61.77 11.10L61.77 11.10Q63.07 10.90 63.21 9.87ZM68.40 12.67L66.49 12.67L66.49 5.83L68.40 5.83L68.40 12.67ZM66.42 4.20L66.42 4.20L66.42 4.20Q66.42 4.61 66.69 4.88L66.69 4.88L66.69 4.88Q66.96 5.15 67.44 5.15L67.44 5.15L67.44 5.15Q67.92 5.15 68.20 4.88L68.20 4.88L68.20 4.88Q68.47 4.61 68.47 4.20L68.47 4.20L68.47 4.20Q68.47 3.79 68.20 3.51L68.20 3.51L68.20 3.51Q67.92 3.23 67.43 3.23L67.43 3.23L67.43 3.23Q66.96 3.23 66.69 3.51L66.69 3.51L66.69 3.51Q66.42 3.79 66.42 4.20ZM73.14 12.67L73.14 12.67Q71.77 12.67 70.75 11.82L70.75 11.82L70.75 11.82Q69.72 10.96 69.72 9.60L69.72 9.60L69.72 8.91L69.72 8.91Q69.72 7.55 70.75 6.69L70.75 6.69L70.75 6.69Q71.77 5.84 73.14 5.84L73.14 5.84L73.14 5.84Q74.79 5.84 75.87 7L75.87 7L74.50 8.03L74.50 8.03Q73.89 7.41 73.14 7.41L73.14 7.41L73.14 7.41Q72.45 7.41 71.94 7.96L71.94 7.96L71.94 7.96Q71.43 8.50 71.43 9.26L71.43 9.26L71.43 9.26Q71.43 10.01 71.91 10.55L71.91 10.55L71.91 10.55Q72.39 11.10 73.14 11.10L73.14 11.10L73.14 11.10Q73.89 11.10 74.50 10.49L74.50 10.49L75.87 11.51L75.87 11.51Q74.78 12.67 73.14 12.67L73.14 12.67ZM78.12 7.82L77.37 6.66L77.37 6.66Q78.67 5.84 80.38 5.84L80.38 5.84L80.38 5.84Q81.61 5.84 82.33 6.52L82.33 6.52L82.33 6.52Q83.04 7.21 83.04 8.57L83.04 8.57L83.04 12.67L81.13 12.67L81.13 12.13L81.13 12.13Q80.29 12.67 79.63 12.67L79.63 12.67L79.63 12.67Q78.26 12.67 77.57 12.09L77.57 12.09L77.57 12.09Q76.89 11.51 76.89 10.49L76.89 10.49L76.89 10.49Q76.89 9.53 77.54 8.78L77.54 8.78L77.54 8.78Q78.18 8.03 79.63 8.03L79.63 8.03L79.63 8.03Q80.29 8.03 81.13 8.44L81.13 8.44L81.13 8.23L81.13 8.23Q81.12 7.48 80.04 7.41L80.04 7.41L80.04 7.41Q78.80 7.41 78.12 7.82L78.12 7.82ZM81.13 10.62L81.13 10.62L81.13 9.85L81.13 9.85Q80.86 9.32 79.83 9.32L79.83 9.32L79.83 9.32Q78.60 9.46 78.53 10.28L78.53 10.28L78.53 10.28Q78.60 11.09 79.83 11.16L79.83 11.16L79.83 11.16Q80.86 11.16 81.13 10.62ZM86.67 12.67L84.75 12.67L84.75 2.42L86.67 2.42L86.67 12.67ZM99.85 5.15L101.90 12.67L103.95 12.67L106.68 2.42L104.49 2.42L102.72 9.39L100.94 2.42L98.82 2.42L96.97 9.39L95.19 2.42L93.00 2.42L95.74 12.67L97.79 12.67L99.85 5.15ZM107.68 9.26L107.68 9.26L107.68 9.26Q107.68 7.75 108.64 6.79L108.64 6.79L108.64 6.79Q109.59 5.84 111.10 5.84L111.10 5.84L111.10 5.84Q112.60 5.84 113.49 6.79L113.49 6.79L113.49 6.79Q114.38 7.75 114.38 9.26L114.38 9.26L114.38 9.94L109.66 9.94L109.66 9.94Q109.73 10.49 110.14 10.79L110.14 10.79L110.14 10.79Q110.55 11.10 111.10 11.10L111.10 11.10L111.10 11.10Q112.05 11.10 112.81 10.55L112.81 10.55L113.90 11.65L113.90 11.65Q113.15 12.67 111.10 12.67L111.10 12.67L111.10 12.67Q109.59 12.67 108.64 11.72L108.64 11.72L108.64 11.72Q107.68 10.76 107.68 9.26ZM112.46 8.57L112.46 8.57Q112.46 8.03 112.05 7.72L112.05 7.72L112.05 7.72Q111.64 7.41 111.10 7.41L111.10 7.41L111.10 7.41Q110.55 7.41 110.14 7.72L110.14 7.72L110.14 7.72Q109.73 8.03 109.73 8.57L109.73 8.57L112.46 8.57ZM117.80 12.67L115.88 12.67L115.88 2.42L117.80 2.42L117.80 12.67ZM122.04 12.67L120.12 12.67L120.12 7.21L119.10 7.21L119.10 5.66L120.12 5.66L120.12 4.74L120.12 4.74Q120.12 3.72 120.80 3.07L120.80 3.07L120.80 3.07Q121.49 2.42 122.65 2.42L122.65 2.42L122.65 2.42Q123.88 2.42 124.56 3.10L124.56 3.10L123.55 4.24L123.55 4.24Q123.35 4.03 122.86 4.03L122.86 4.03L122.86 4.03Q122.50 4.03 122.27 4.25L122.27 4.25L122.27 4.25Q122.04 4.47 122.04 5.02L122.04 5.02L122.04 5.66L123.07 5.66L123.07 7.21L122.04 7.21L122.04 12.67ZM125.96 7.82L125.21 6.66L125.21 6.66Q126.51 5.84 128.21 5.84L128.21 5.84L128.21 5.84Q129.45 5.84 130.16 6.52L130.16 6.52L130.16 6.52Q130.88 7.21 130.88 8.57L130.88 8.57L130.88 12.67L128.97 12.67L128.97 12.13L128.97 12.13Q128.13 12.67 127.46 12.67L127.46 12.67L127.46 12.67Q126.10 12.67 125.41 12.09L125.41 12.09L125.41 12.09Q124.73 11.51 124.73 10.49L124.73 10.49L124.73 10.49Q124.73 9.53 125.37 8.78L125.37 8.78L125.37 8.78Q126.02 8.03 127.46 8.03L127.46 8.03L127.46 8.03Q128.13 8.03 128.97 8.44L128.97 8.44L128.97 8.23L128.97 8.23Q128.95 7.48 127.87 7.41L127.87 7.41L127.87 7.41Q126.64 7.41 125.96 7.82L125.96 7.82ZM128.97 10.62L128.97 10.62L128.97 9.85L128.97 9.85Q128.69 9.32 127.67 9.32L127.67 9.32L127.67 9.32Q126.44 9.46 126.37 10.28L126.37 10.28L126.37 10.28Q126.44 11.09 127.67 11.16L127.67 11.16L127.67 11.16Q128.69 11.16 128.97 10.62ZM134.35 5.83L134.35 6.59L134.35 6.59Q135.08 5.84 136.14 5.84L136.14 5.84L136.14 5.84Q136.47 5.84 136.77 5.89L136.77 5.89L136.47 7.78L136.47 7.78Q136.14 7.48 135.52 7.46L135.52 7.46L135.52 7.46Q134.82 7.51 134.35 8.47L134.35 8.47L134.35 12.67L132.44 12.67L132.44 6.04L134.35 5.83ZM137.67 9.26L137.67 9.26L137.67 9.26Q137.67 7.75 138.63 6.79L138.63 6.79L138.63 6.79Q139.58 5.84 141.09 5.84L141.09 5.84L141.09 5.84Q142.59 5.84 143.48 6.79L143.48 6.79L143.48 6.79Q144.37 7.75 144.37 9.26L144.37 9.26L144.37 9.94L139.65 9.94L139.65 9.94Q139.72 10.49 140.13 10.79L140.13 10.79L140.13 10.79Q140.54 11.10 141.09 11.10L141.09 11.10L141.09 11.10Q142.04 11.10 142.80 10.55L142.80 10.55L143.89 11.65L143.89 11.65Q143.14 12.67 141.09 12.67L141.09 12.67L141.09 12.67Q139.58 12.67 138.63 11.72L138.63 11.72L138.63 11.72Q137.67 10.76 137.67 9.26ZM142.45 8.57L142.45 8.57Q142.45 8.03 142.04 7.72L142.04 7.72L142.04 7.72Q141.63 7.41 141.09 7.41L141.09 7.41L141.09 7.41Q140.54 7.41 140.13 7.72L140.13 7.72L140.13 7.72Q139.72 8.03 139.72 8.57L139.72 8.57L142.45 8.57ZM152.87 12.67L150.81 12.67L150.81 2.42L151.50 2.42L157.92 8.85L157.92 2.42L159.97 2.42L159.97 12.67L159.22 12.67L152.87 6.32L152.87 12.67ZM161.58 9.26L161.58 9.26L161.58 9.26Q161.58 7.75 162.54 6.79L162.54 6.79L162.54 6.79Q163.50 5.84 165.00 5.84L165.00 5.84L165.00 5.84Q166.50 5.84 167.39 6.79L167.39 6.79L167.39 6.79Q168.28 7.75 168.28 9.26L168.28 9.26L168.28 9.94L163.56 9.94L163.56 9.94Q163.63 10.49 164.04 10.79L164.04 10.79L164.04 10.79Q164.45 11.10 165.00 11.10L165.00 11.10L165.00 11.10Q165.96 11.10 166.71 10.55L166.71 10.55L167.80 11.65L167.80 11.65Q167.05 12.67 165.00 12.67L165.00 12.67L165.00 12.67Q163.50 12.67 162.54 11.72L162.54 11.72L162.54 11.72Q161.58 10.76 161.58 9.26ZM166.37 8.57L166.37 8.57Q166.37 8.03 165.96 7.72L165.96 7.72L165.96 7.72Q165.55 7.41 165.00 7.41L165.00 7.41L165.00 7.41Q164.45 7.41 164.04 7.72L164.04 7.72L164.04 7.72Q163.63 8.03 163.63 8.57L163.63 8.57L166.37 8.57ZM174.00 12.35L174.00 12.35Q173.51 12.67 172.87 12.67L172.87 12.67L172.87 12.67Q171.71 12.67 171.03 12.02L171.03 12.02L171.03 12.02Q170.34 11.38 170.34 10.35L170.34 10.35L170.34 7.39L169.32 7.39L169.32 5.84L170.34 5.84L170.34 3.99L172.27 3.79L172.27 5.84L173.29 5.84L173.29 7.39L172.27 7.39L172.27 10.08L172.27 10.08Q172.27 10.62 172.49 10.85L172.49 10.85L172.49 10.85Q172.72 11.07 173.09 11.07L173.09 11.07L173.09 11.07Q173.20 11.07 173.60 10.98L173.60 10.98L174.00 12.35ZM179.22 9.25L180.24 12.67L181.95 12.67L183.78 5.83L181.98 5.83L180.93 9.94L179.95 5.83L178.53 5.83L177.51 9.87L176.45 5.83L174.65 5.83L176.48 12.67L178.19 12.67L179.22 9.25ZM188.23 12.74L188.23 12.74Q186.74 12.74 185.75 11.74L185.75 11.74L185.75 11.74Q184.75 10.74 184.75 9.26L184.75 9.26L184.75 9.26Q184.75 7.77 185.75 6.77L185.75 6.77L185.75 6.77Q186.74 5.77 188.23 5.77L188.23 5.77L188.23 5.77Q189.72 5.77 190.72 6.77L190.72 6.77L190.72 6.77Q191.72 7.77 191.72 9.26L191.72 9.26L191.72 9.26Q191.72 10.75 190.72 11.74L190.72 11.74L190.72 11.74Q189.72 12.74 188.23 12.74L188.23 12.74ZM188.23 11.09L188.23 11.09L188.23 11.09Q189.01 11.09 189.49 10.56L189.49 10.56L189.49 10.56Q189.98 10.04 189.98 9.26L189.98 9.26L189.98 9.26Q189.98 8.48 189.49 7.96L189.49 7.96L189.49 7.96Q189.01 7.43 188.22 7.43L188.22 7.43L188.22 7.43Q187.45 7.43 186.96 7.96L186.96 7.96L186.96 7.96Q186.48 8.48 186.48 9.26L186.48 9.26L186.48 9.26Q186.48 10.04 186.96 10.56L186.96 10.56L186.96 10.56Q187.45 11.09 188.23 11.09ZM194.78 5.83L194.78 6.59L194.78 6.59Q195.51 5.84 196.57 5.84L196.57 5.84L196.57 5.84Q196.90 5.84 197.20 5.89L197.20 5.89L196.90 7.78L196.90 7.78Q196.57 7.48 195.95 7.46L195.95 7.46L195.95 7.46Q195.25 7.51 194.78 8.47L194.78 8.47L194.78 12.67L192.87 12.67L192.87 6.04L194.78 5.83ZM198.64 12.67L198.64 2.42L200.69 2.42L200.69 8.22L202.65 5.84L204.96 5.84L202.40 8.91L205.64 12.67L202.97 12.67L200.69 9.95L200.69 12.67L198.64 12.67Z"></path></g><!----><g data-v-423bf9ae="" id="6f064d72-023a-443b-bacf-2a0dcde40a8b" transform="matrix(2.2216735436680644,0,0,2.2216735436680644,-5.448888281993604,-62.67598281417854)" stroke="none" fill="#00A3DD"><ellipse cx="80.072" cy="65.967" rx="7.366" ry="2.582"></ellipse><ellipse cx="10.249" cy="66.312" rx="7.366" ry="2.582"></ellipse><ellipse cx="63.345" cy="66.14" rx="7.367" ry="2.582"></ellipse><ellipse cx="27.436" cy="66.14" rx="7.366" ry="2.582"></ellipse><ellipse cx="45.238" cy="66.14" rx="7.366" ry="2.582"></ellipse><ellipse cx="77.639" cy="58.824" rx="6.402" ry="2.321"></ellipse><ellipse cx="16.957" cy="59.134" rx="6.402" ry="2.322"></ellipse><ellipse cx="63.102" cy="58.979" rx="6.402" ry="2.322"></ellipse><ellipse cx="31.894" cy="58.979" rx="6.402" ry="2.322"></ellipse><ellipse cx="47.365" cy="58.979" rx="6.402" ry="2.322"></ellipse><ellipse cx="74.622" cy="53.123" rx="5.43" ry="1.529"></ellipse><ellipse cx="23.148" cy="53.326" rx="5.43" ry="1.53"></ellipse><ellipse cx="62.291" cy="53.224" rx="5.431" ry="1.53"></ellipse><ellipse cx="35.819" cy="53.224" rx="5.43" ry="1.53"></ellipse><ellipse cx="48.942" cy="53.224" rx="5.43" ry="1.53"></ellipse><ellipse cx="72.712" cy="49.097" rx="4.731" ry="1.156"></ellipse><ellipse cx="27.87" cy="49.251" rx="4.731" ry="1.156"></ellipse><ellipse cx="61.97" cy="49.174" rx="4.73" ry="1.155"></ellipse><ellipse cx="38.908" cy="49.174" rx="4.731" ry="1.155"></ellipse><ellipse cx="50.34" cy="49.174" rx="4.73" ry="1.155"></ellipse><ellipse cx="70.183" cy="45.567" rx="3.904" ry="1.155"></ellipse><ellipse cx="33.181" cy="45.722" rx="3.904" ry="1.155"></ellipse><ellipse cx="61.319" cy="45.645" rx="3.903" ry="1.155"></ellipse><ellipse cx="42.289" cy="45.645" rx="3.903" ry="1.155"></ellipse><ellipse cx="51.724" cy="45.645" rx="3.903" ry="1.155"></ellipse><ellipse cx="67.674" cy="42.249" rx="3.345" ry=".847"></ellipse><ellipse cx="35.968" cy="42.361" rx="3.345" ry=".848"></ellipse><ellipse cx="60.078" cy="42.305" rx="3.345" ry=".846"></ellipse><ellipse cx="43.773" cy="42.305" rx="3.345" ry=".846"></ellipse><ellipse cx="51.856" cy="42.305" rx="3.345" ry=".846"></ellipse><ellipse cx="64.713" cy="39.569" rx="2.91" ry=".75"></ellipse><ellipse cx="37.13" cy="39.669" rx="2.909" ry=".75"></ellipse><ellipse cx="58.104" cy="39.62" rx="2.909" ry=".749"></ellipse><ellipse cx="43.919" cy="39.62" rx="2.91" ry=".749"></ellipse><ellipse cx="50.952" cy="39.62" rx="2.91" ry=".749"></ellipse><ellipse cx="60.82" cy="37.488" rx="2.505" ry=".56"></ellipse><ellipse cx="37.069" cy="37.563" rx="2.505" ry=".559"></ellipse><ellipse cx="55.13" cy="37.526" rx="2.505" ry=".559"></ellipse><ellipse cx="42.916" cy="37.526" rx="2.506" ry=".559"></ellipse><ellipse cx="48.971" cy="37.526" rx="2.506" ry=".559"></ellipse><ellipse cx="55.342" cy="35.668" rx="2.164" ry=".56"></ellipse><ellipse cx="34.837" cy="35.744" rx="2.163" ry=".56"></ellipse><ellipse cx="50.43" cy="35.706" rx="2.163" ry=".559"></ellipse><ellipse cx="39.884" cy="35.706" rx="2.163" ry=".559"></ellipse><ellipse cx="45.112" cy="35.706" rx="2.163" ry=".559"></ellipse><ellipse cx="51.567" cy="34.081" rx="1.897" ry=".378"></ellipse><ellipse cx="33.578" cy="34.132" rx="1.898" ry=".377"></ellipse><ellipse cx="47.258" cy="34.106" rx="1.897" ry=".377"></ellipse><ellipse cx="38.006" cy="34.106" rx="1.897" ry=".377"></ellipse><ellipse cx="42.592" cy="34.106" rx="1.898" ry=".377"></ellipse><ellipse cx="47.812" cy="32.997" rx="1.664" ry=".253"></ellipse><ellipse cx="32.045" cy="33.031" rx="1.663" ry=".253"></ellipse><ellipse cx="44.036" cy="33.013" rx="1.664" ry=".254"></ellipse><ellipse cx="35.927" cy="33.013" rx="1.664" ry=".254"></ellipse><ellipse cx="39.947" cy="33.013" rx="1.663" ry=".254"></ellipse><ellipse cx="44.17" cy="32.1" rx="1.424" ry=".254"></ellipse><ellipse cx="30.667" cy="32.134" rx="1.424" ry=".253"></ellipse><ellipse cx="40.935" cy="32.117" rx="1.424" ry=".253"></ellipse><ellipse cx="33.99" cy="32.117" rx="1.425" ry=".253"></ellipse><ellipse cx="37.433" cy="32.117" rx="1.424" ry=".253"></ellipse><ellipse cx="40.518" cy="31.239" rx="1.135" ry=".187"></ellipse><ellipse cx="29.759" cy="31.264" rx="1.135" ry=".187"></ellipse><ellipse cx="37.941" cy="31.251" rx="1.135" ry=".188"></ellipse><ellipse cx="32.408" cy="31.251" rx="1.135" ry=".188"></ellipse><ellipse cx="35.151" cy="31.251" rx="1.135" ry=".188"></ellipse><ellipse cx="37.533" cy="30.532" rx=".983" ry=".187"></ellipse><ellipse cx="28.214" cy="30.557" rx=".982" ry=".187"></ellipse><ellipse cx="35.3" cy="30.544" rx=".983" ry=".187"></ellipse><ellipse cx="30.508" cy="30.544" rx=".983" ry=".187"></ellipse><ellipse cx="32.884" cy="30.544" rx=".983" ry=".187"></ellipse><ellipse cx="33.52" cy="29.916" rx=".878" ry=".101"></ellipse><ellipse cx="31.525" cy="29.922" rx=".879" ry=".102"></ellipse><ellipse cx="27.243" cy="29.922" rx=".878" ry=".102"></ellipse><ellipse cx="29.366" cy="29.922" rx=".878" ry=".102"></ellipse><ellipse cx="31.585" cy="29.399" rx=".762" ry=".102"></ellipse><ellipse cx="29.854" cy="29.406" rx=".762" ry=".102"></ellipse><ellipse cx="26.14" cy="29.406" rx=".762" ry=".102"></ellipse><ellipse cx="27.981" cy="29.406" rx=".762" ry=".102"></ellipse><ellipse cx="29.958" cy="28.91" rx=".673" ry=".101"></ellipse><ellipse cx="28.43" cy="28.917" rx=".673" ry=".102"></ellipse><ellipse cx="25.151" cy="28.917" rx=".672" ry=".102"></ellipse><ellipse cx="26.777" cy="28.917" rx=".673" ry=".102"></ellipse><ellipse cx="27.534" cy="28.458" rx=".614" ry=".074"></ellipse><ellipse cx="26.139" cy="28.463" rx=".614" ry=".074"></ellipse><ellipse cx="24.629" cy="28.463" rx=".614" ry=".074"></ellipse></g><!----></svg>